<svg xmlns="http://www.w3.org/2000/svg" version="1.1" xmlns:xlink="http://www.w3.org/1999/xlink" xmlns:svgjs="http://svgjs.dev/svgjs" width="2000" height="1500" viewBox="0 0 2000 1500"><rect width="2000" height="1500" fill="none"></rect><g transform="matrix(0.75,0,0,0.75,250.90479648093833,276.1709270833335)"><svg viewBox="0 0 341 216" data-background-color="#ffffff" preserveAspectRatio="xMidYMid meet" height="1266" width="2000" xmlns="http://www.w3.org/2000/svg" xmlns:xlink="http://www.w3.org/1999/xlink"><g id="tight-bounds" transform="matrix(1,0,0,1,-0.2056903999999804,-0.20950000000001978)"><svg viewBox="0 0 341.41138079999996 216.4188602445202" height="216.4188602445202" width="341.41138079999996"><g><svg viewBox="0 0 341.41138079999996 216.4188602445202" height="216.4188602445202" width="341.41138079999996"><g><svg viewBox="0 0 341.41138079999996 216.4188602445202" height="216.4188602445202" width="341.41138079999996"><g><svg viewBox="0 0 341.41138079999996 216.4188602445202" height="216.4188602445202" width="341.41138079999996"><g><path d="M0 216.419v-216.419h341.411v216.419z" fill="#1a4fac" stroke="transparent" stroke-width="0" rx="0%" data-fill-palette-color="tertiary"></path><path d="M4.509 211.91v-207.401h332.393v207.401z" fill="#ffffff" stroke="transparent" stroke-width="0" rx="0%" data-fill-palette-color="quaternary"></path><path d="M13.527 202.892v-189.365h314.357v189.365z" fill="#1a4fac" stroke="transparent" stroke-width="0" data-fill-palette-color="tertiary"></path></g><g transform="matrix(1,0,0,1,27.054309599999996,27.054309599999996)" id="textblocktransform"><svg viewBox="0 0 287.30276159999994 162.3102410445202" height="162.3102410445202" width="287.30276159999994" id="textblock"><g><svg viewBox="0 0 287.30276159999994 114.39798509324385" height="114.39798509324385" width="287.30276159999994"><g transform="matrix(1,0,0,1,0,0)"><svg width="287.30276159999994" viewBox="1.7999999999999998 -37.15 104.34 41.55" height="114.39798509324385" data-palette-color="#ffffff"><path d="M12.85 4.4L11.15 4.4 11.15 0.4Q9.4 0.3 7.93-0.03 6.45-0.35 5.35-0.75L5.35-0.75Q4.6-1 3.9-1.18 3.2-1.35 2.6-1.35L2.6-1.35 2.6-7 3.1-7Q3.1-5.1 4.08-4 5.05-2.9 6.35-2.3 7.65-1.7 8.95-1.53 10.25-1.35 10.85-1.35L10.85-1.35 11.15-1.35 11.15-15.75Q9.5-16.35 7.83-17.07 6.15-17.8 4.8-18.82 3.45-19.85 2.63-21.33 1.8-22.8 1.8-24.9L1.8-24.9Q1.8-26.95 2.58-28.5 3.35-30.05 4.67-31.1 6-32.15 7.68-32.73 9.35-33.3 11.15-33.4L11.15-33.4 11.15-37.15 12.85-37.15 12.85-33.4Q14.8-33.25 16.55-32.85L16.55-32.85Q17.4-32.65 18.2-32.52 19-32.4 19.75-32.4L19.75-32.4 19.75-27.25 19.25-27.25Q19.15-29.6 17.45-30.58 15.75-31.55 12.85-31.65L12.85-31.65 12.85-18.6Q14.55-17.95 16.28-17.2 18-16.45 19.38-15.33 20.75-14.2 21.6-12.65 22.45-11.1 22.45-8.85L22.45-8.85Q22.45-6.6 21.63-4.98 20.8-3.35 19.45-2.23 18.1-1.1 16.38-0.5 14.65 0.1 12.85 0.3L12.85 0.3 12.85 4.4ZM19.05-8.45L19.05-8.45Q19.05-9.75 18.53-10.78 18-11.8 17.13-12.6 16.25-13.4 15.13-14.03 14-14.65 12.85-15.15L12.85-15.15 12.85-1.5Q14.4-1.8 15.58-2.5 16.75-3.2 17.53-4.15 18.3-5.1 18.68-6.23 19.05-7.35 19.05-8.45ZM5.2-25.35L5.2-25.35Q5.2-24.15 5.68-23.23 6.15-22.3 6.98-21.58 7.8-20.85 8.88-20.3 9.95-19.75 11.15-19.25L11.15-19.25 11.15-31.65Q9.45-31.5 8.33-30.78 7.2-30.05 6.5-29.13 5.8-28.2 5.5-27.18 5.2-26.15 5.2-25.35ZM45.85 0L45.85-0.5 46.1-0.5Q47.3-0.5 47.3-1.6L47.3-1.6Q47.3-2 47.15-2.45L47.15-2.45 42.65-14.6 33.9-14.6 29.55-2.65Q29.4-2.25 29.4-1.9L29.4-1.9Q29.4-1.25 29.75-0.88 30.1-0.5 30.5-0.5L30.5-0.5 30.75-0.5 30.75 0 25.2 0 25.2-0.5 25.45-0.5Q26.1-0.5 26.72-1.28 27.35-2.05 27.75-3.1L27.75-3.1 39.2-33.6 50.4-3.4Q50.75-2.4 51.37-1.45 52-0.5 53-0.5L53-0.5 53.25-0.5 53.25 0 45.85 0ZM38.25-26.75L34.4-16.3 42.1-16.3 38.25-26.75ZM64.25-0.5L64.25-0.5 64.5-0.5 64.5 0 57.4 0 57.4-0.5 57.65-0.5Q58.05-0.5 58.35-0.8 58.65-1.1 58.87-1.5 59.1-1.9 59.2-2.38 59.3-2.85 59.3-3.25L59.3-3.25 59.3-31.15 53.5-31.15Q52.7-31.15 52.1-30.8 51.5-30.45 51.1-29.93 50.7-29.4 50.5-28.78 50.3-28.15 50.3-27.55L50.3-27.55 49.8-27.55 49.8-33 72.25-33 72.25-27.55 71.75-27.55Q71.75-28.15 71.55-28.78 71.34-29.4 70.95-29.93 70.55-30.45 69.95-30.8 69.34-31.15 68.55-31.15L68.55-31.15 62.65-31.15 62.65-3.25Q62.65-2.85 62.75-2.38 62.85-1.9 63.07-1.5 63.3-1.1 63.57-0.8 63.85-0.5 64.25-0.5ZM89.34-33.5L89.34-33.5Q93.24-33.5 96.34-32.13 99.44-30.75 101.62-28.43 103.79-26.1 104.97-23.03 106.14-19.95 106.14-16.6L106.14-16.6Q106.14-12.85 104.77-9.7 103.39-6.55 100.99-4.3 98.59-2.05 95.42-0.78 92.24 0.5 88.64 0.5L88.64 0.5Q84.79 0.5 81.72-0.9 78.64-2.3 76.52-4.6 74.39-6.9 73.24-9.9 72.09-12.9 72.09-16.15L72.09-16.15Q72.09-19.35 73.24-22.48 74.39-25.6 76.62-28.05 78.84-30.5 82.04-32 85.24-33.5 89.34-33.5ZM89.29-1.25L89.29-1.25Q92.64-1.4 95.17-2.78 97.69-4.15 99.39-6.28 101.09-8.4 101.92-10.95 102.74-13.5 102.74-16L102.74-16Q102.74-18.75 101.74-21.55 100.74-24.35 98.89-26.63 97.04-28.9 94.47-30.33 91.89-31.75 88.69-31.75L88.69-31.75Q85.59-31.75 83.14-30.38 80.69-29 78.97-26.85 77.24-24.7 76.34-22.05 75.44-19.4 75.44-16.85L75.44-16.85Q75.44-14.1 76.49-11.33 77.54-8.55 79.39-6.3 81.24-4.05 83.77-2.65 86.29-1.25 89.29-1.25Z" opacity="1" transform="matrix(1,0,0,1,0,0)" fill="#ffffff" class="wordmark-text-0" data-fill-palette-color="quaternary" id="text-0"></path></svg></g></svg></g><g transform="matrix(1,0,0,1,0,123.41608829324385)"><svg viewBox="0 0 287.30276159999994 38.89415275127637" height="38.89415275127637" width="287.30276159999994"><g transform="matrix(1,0,0,1,0,0)"><svg width="287.30276159999994" viewBox="4.2 -32.64 242.89000000000001 32.88" height="38.89415275127637" data-palette-color="#ffffff"><path d="M5.52 0Q4.83 0 4.52-0.32 4.2-0.63 4.2-1.29L4.2-1.29 4.2-29.08Q4.2-29.76 4.52-30.07 4.83-30.37 5.52-30.37L5.52-30.37 14.28-30.37Q20.39-30.37 24.05-26.76 27.71-23.14 27.71-15.21L27.71-15.21Q27.71-7.23 24.05-3.61 20.39 0 14.28 0L14.28 0 5.52 0ZM8.03-3.3L13.99-3.3Q18.38-3.3 21.07-6.16 23.75-9.03 23.75-15.21L23.75-15.21Q23.75-19.36 22.49-22.01 21.22-24.66 19.02-25.87 16.82-27.08 13.99-27.08L13.99-27.08 8.03-27.08 8.03-3.3ZM39.72 0.24Q36.4 0.24 34.35-1.39 32.3-3.03 32.3-6.25L32.3-6.25Q32.3-9.64 34.37-11.36 36.45-13.09 39.44-13.59 42.43-14.09 46.7-14.16L46.7-14.16 46.7-16.21Q46.7-17.85 45.59-18.84 44.48-19.82 41.94-19.82L41.94-19.82Q40.01-19.82 38.56-19.37 37.11-18.92 35.84-18.29L35.84-18.29Q35.3-18.02 35.18-18.02L35.18-18.02Q34.89-18.02 34.53-18.44 34.18-18.87 33.92-19.41 33.66-19.95 33.66-20.19L33.66-20.19Q33.66-20.75 34.82-21.41 35.98-22.07 37.86-22.51 39.74-22.95 41.79-22.95L41.79-22.95Q45.87-22.95 48.12-21.17 50.36-19.38 50.36-16.16L50.36-16.16 50.36-6.42Q50.36-3.59 50.62-2.33 50.88-1.07 50.88-0.95L50.88-0.95Q50.88-0.42 50.06-0.18 49.24 0.05 48.53 0.05L48.53 0.05Q47.95 0.05 47.67-0.61 47.39-1.27 47.12-2.51L47.12-2.51 47.02-3Q45.68-1.51 43.86-0.63 42.04 0.24 39.72 0.24L39.72 0.24ZM39.91-2.91Q42.06-2.91 43.58-3.69 45.09-4.47 46.7-5.91L46.7-5.91 46.7-11.04Q43.48-11.01 41.4-10.77 39.33-10.52 37.77-9.53 36.2-8.54 36.2-6.47L36.2-6.47Q36.2-4.74 37.14-3.82 38.08-2.91 39.91-2.91L39.91-2.91ZM64.08 0.24Q61.91 0.24 60.2-1.07 58.49-2.39 58.49-5.74L58.49-5.74 58.49-19.58 56.32-19.58Q55.85-19.58 55.65-19.89 55.44-20.19 55.44-20.87L55.44-20.87 55.44-21.41Q55.44-22.09 55.65-22.4 55.85-22.71 56.32-22.71L56.32-22.71 58.49-22.71 59-27.25Q59.05-28.2 60.4-28.2L60.4-28.2 60.81-28.2Q61.49-28.2 61.81-27.97 62.13-27.73 62.13-27.25L62.13-27.25 62.13-22.71 65.77-22.71Q66.23-22.71 66.44-22.4 66.65-22.09 66.65-21.41L66.65-21.41 66.65-20.87Q66.65-20.19 66.44-19.89 66.23-19.58 65.77-19.58L65.77-19.58 62.13-19.58 62.13-6.08Q62.13-4.3 62.75-3.59 63.37-2.88 64.45-2.88L64.45-2.88Q65.28-2.88 65.73-2.98 66.18-3.08 66.33-3.08L66.33-3.08Q66.72-3.08 66.97-2.29 67.23-1.51 67.23-1.05L67.23-1.05Q67.23 0.24 64.08 0.24L64.08 0.24ZM78.24 0.24Q74.92 0.24 72.87-1.39 70.82-3.03 70.82-6.25L70.82-6.25Q70.82-9.64 72.89-11.36 74.97-13.09 77.96-13.59 80.95-14.09 85.22-14.16L85.22-14.16 85.22-16.21Q85.22-17.85 84.11-18.84 83-19.82 80.46-19.82L80.46-19.82Q78.53-19.82 77.08-19.37 75.63-18.92 74.36-18.29L74.36-18.29Q73.82-18.02 73.7-18.02L73.7-18.02Q73.41-18.02 73.05-18.44 72.7-18.87 72.44-19.41 72.18-19.95 72.18-20.19L72.18-20.19Q72.18-20.75 73.34-21.41 74.5-22.07 76.38-22.51 78.26-22.95 80.31-22.95L80.31-22.95Q84.39-22.95 86.64-21.17 88.88-19.38 88.88-16.16L88.88-16.16 88.88-6.42Q88.88-3.59 89.14-2.33 89.4-1.07 89.4-0.95L89.4-0.95Q89.4-0.42 88.58-0.18 87.76 0.05 87.05 0.05L87.05 0.05Q86.47 0.05 86.19-0.61 85.91-1.27 85.64-2.51L85.64-2.51 85.54-3Q84.2-1.51 82.38-0.63 80.56 0.24 78.24 0.24L78.24 0.24ZM78.43-2.91Q80.58-2.91 82.1-3.69 83.61-4.47 85.22-5.91L85.22-5.91 85.22-11.04Q82-11.01 79.92-10.77 77.85-10.52 76.29-9.53 74.72-8.54 74.72-6.47L74.72-6.47Q74.72-4.74 75.66-3.82 76.6-2.91 78.43-2.91L78.43-2.91ZM113.37 0.24Q110.97 0.24 108.91-0.28 106.85-0.81 105.61-1.55 104.38-2.29 104.38-2.91L104.38-2.91Q104.38-3.25 104.66-3.81 104.94-4.37 105.31-4.81 105.68-5.25 105.9-5.25L105.9-5.25Q106.09-5.25 106.75-4.86L106.75-4.86Q108.26-4.08 109.75-3.56 111.24-3.05 113.37-3.05L113.37-3.05Q115.03-3.05 116.32-3.69 117.61-4.32 118.33-5.48 119.05-6.64 119.05-8.15L119.05-8.15Q119.05-9.77 118.19-10.83 117.32-11.89 116.09-12.51 114.86-13.13 112.51-14.06L112.51-14.06Q109.97-15.04 108.5-15.88 107.02-16.72 105.98-18.33 104.94-19.95 104.94-22.61L104.94-22.61Q104.94-24.93 106.14-26.77 107.34-28.61 109.53-29.64 111.73-30.66 114.59-30.66L114.59-30.66Q115.88-30.66 117.54-30.31 119.2-29.96 120.39-29.35 121.57-28.74 121.57-28L121.57-28Q121.57-27.69 121.31-27.14 121.06-26.59 120.72-26.15 120.37-25.71 120.18-25.71L120.18-25.71Q119.96-25.71 119.3-26.07L119.3-26.07Q118.2-26.66 117.13-27.01 116.05-27.37 114.51-27.37L114.51-27.37Q112-27.37 110.45-26.07 108.9-24.78 108.9-22.46L108.9-22.46Q108.9-21.07 109.58-20.17 110.27-19.26 111.32-18.73 112.37-18.19 114.25-17.48L114.25-17.48Q114.37-17.46 114.81-17.29L114.81-17.29Q117.39-16.28 119.04-15.34 120.69-14.4 121.85-12.65 123.01-10.89 123.01-8.15L123.01-8.15Q123.01-5.59 121.83-3.69 120.64-1.78 118.46-0.77 116.27 0.24 113.37 0.24L113.37 0.24ZM137.41 0.24Q132.02 0.24 129.37-2.53 126.72-5.3 126.72-11.45L126.72-11.45Q126.72-17.68 129.67-20.31 132.63-22.95 137.02-22.95L137.02-22.95Q138.66-22.95 140.17-22.67 141.68-22.39 142.61-21.92 143.54-21.46 143.54-20.95L143.54-20.95Q143.54-20.61 143.31-20.04 143.08-19.48 142.75-19.06 142.42-18.63 142.15-18.63L142.15-18.63Q142.07-18.63 141.93-18.69 141.78-18.75 141.66-18.8L141.66-18.8Q139.46-19.82 136.92-19.82L136.92-19.82Q133.92-19.82 132.28-17.86 130.65-15.89 130.65-11.55L130.65-11.55Q130.65-8.47 131.31-6.58 131.97-4.69 133.44-3.78 134.92-2.88 137.39-2.88L137.39-2.88Q140.1-2.88 142.27-4L142.27-4Q142.49-4.05 142.6-4.11 142.71-4.17 142.76-4.17L142.76-4.17Q143.03-4.17 143.37-3.76 143.71-3.34 143.97-2.81 144.22-2.27 144.22-1.95L144.22-1.95Q144.22-1.44 143.3-0.93 142.37-0.42 140.79-0.09 139.22 0.24 137.41 0.24L137.41 0.24ZM151.03-28.17Q149.3-28.17 149.3-29.13L149.3-29.13 149.3-31.69Q149.3-32.64 151.03-32.64L151.03-32.64 151.55-32.64Q153.3-32.64 153.3-31.69L153.3-31.69 153.3-29.13Q153.3-28.17 151.55-28.17L151.55-28.17 151.03-28.17ZM151.2 0.07Q149.47 0.07 149.47-0.88L149.47-0.88 149.47-21.83Q149.47-22.78 151.2-22.78L151.2-22.78 151.37-22.78Q153.13-22.78 153.13-21.83L153.13-21.83 153.13-0.88Q153.13 0.07 151.37 0.07L151.37 0.07 151.2 0.07ZM170.05 0.24Q164.65 0.24 162.03-2.58 159.4-5.4 159.4-11.21L159.4-11.21Q159.4-16.97 161.97-19.96 164.53-22.95 169.51-22.95L169.51-22.95Q173.95-22.95 176.21-20.07 178.47-17.19 178.47-11.62L178.47-11.62Q178.47-11.38 178.21-10.95 177.96-10.52 177.6-10.19 177.25-9.86 177.01-9.86L177.01-9.86 163.31-9.86Q163.58-6.23 165.18-4.55 166.78-2.88 170-2.88L170-2.88Q171.81-2.88 173.11-3.32 174.42-3.76 175.64-4.39L175.64-4.39Q175.76-4.44 176.01-4.57 176.25-4.69 176.35-4.69L176.35-4.69Q176.62-4.69 176.97-4.26 177.32-3.83 177.58-3.31 177.84-2.78 177.84-2.54L177.84-2.54Q177.84-2 176.76-1.34 175.69-0.68 173.89-0.22 172.1 0.24 170.05 0.24L170.05 0.24ZM163.31-12.99L174.59-12.99Q174.59-19.82 169.39-19.82L169.39-19.82Q163.8-19.82 163.31-12.99L163.31-12.99ZM185.92 0.07Q184.99 0.07 184.57-0.16 184.16-0.39 184.16-0.88L184.16-0.88 184.16-16.11Q184.16-18.95 183.89-20.2 183.62-21.46 183.62-21.58L183.62-21.58Q183.62-22.12 184.44-22.35 185.26-22.58 185.99-22.58L185.99-22.58Q186.6-22.58 186.89-21.92 187.18-21.26 187.32-20.58 187.45-19.9 187.5-19.7L187.5-19.7Q188.87-21.24 190.66-22.09 192.46-22.95 194.29-22.95L194.29-22.95Q197.61-22.95 199.48-21.08 201.34-19.21 201.34-15.94L201.34-15.94 201.34-0.88Q201.34-0.39 200.93-0.16 200.51 0.07 199.61 0.07L199.61 0.07 199.42 0.07Q198.54 0.07 198.12-0.16 197.71-0.39 197.71-0.88L197.71-0.88 197.71-15.58Q197.71-17.58 196.55-18.69 195.39-19.8 193.29-19.8L193.29-19.8Q191.82-19.8 190.35-18.98 188.87-18.16 187.79-16.75L187.79-16.75 187.79-0.88Q187.79-0.39 187.38-0.16 186.96 0.07 186.09 0.07L186.09 0.07 185.92 0.07ZM217.53 0.24Q212.13 0.24 209.48-2.53 206.84-5.3 206.84-11.45L206.84-11.45Q206.84-17.68 209.79-20.31 212.74-22.95 217.14-22.95L217.14-22.95Q218.77-22.95 220.29-22.67 221.8-22.39 222.73-21.92 223.66-21.46 223.66-20.95L223.66-20.95Q223.66-20.61 223.42-20.04 223.19-19.48 222.86-19.06 222.53-18.63 222.27-18.63L222.27-18.63Q222.19-18.63 222.05-18.69 221.9-18.75 221.78-18.8L221.78-18.8Q219.58-19.82 217.04-19.82L217.04-19.82Q214.04-19.82 212.4-17.86 210.77-15.89 210.77-11.55L210.77-11.55Q210.77-8.47 211.43-6.58 212.08-4.69 213.56-3.78 215.04-2.88 217.5-2.88L217.5-2.88Q220.21-2.88 222.39-4L222.39-4Q222.61-4.05 222.72-4.11 222.83-4.17 222.88-4.17L222.88-4.17Q223.14-4.17 223.49-3.76 223.83-3.34 224.08-2.81 224.34-2.27 224.34-1.95L224.34-1.95Q224.34-1.44 223.41-0.93 222.48-0.42 220.91-0.09 219.34 0.24 217.53 0.24L217.53 0.24ZM238.67 0.24Q233.27 0.24 230.65-2.58 228.02-5.4 228.02-11.21L228.02-11.21Q228.02-16.97 230.59-19.96 233.15-22.95 238.13-22.95L238.13-22.95Q242.58-22.95 244.83-20.07 247.09-17.19 247.09-11.62L247.09-11.62Q247.09-11.38 246.84-10.95 246.58-10.52 246.22-10.19 245.87-9.86 245.63-9.86L245.63-9.86 231.93-9.86Q232.2-6.23 233.8-4.55 235.4-2.88 238.62-2.88L238.62-2.88Q240.43-2.88 241.73-3.32 243.04-3.76 244.26-4.39L244.26-4.39Q244.38-4.44 244.63-4.57 244.87-4.69 244.97-4.69L244.97-4.69Q245.24-4.69 245.59-4.26 245.94-3.83 246.2-3.31 246.46-2.78 246.46-2.54L246.46-2.54Q246.46-2 245.38-1.34 244.31-0.68 242.51-0.22 240.72 0.24 238.67 0.24L238.67 0.24ZM231.93-12.99L243.21-12.99Q243.21-19.82 238.01-19.82L238.01-19.82Q232.42-19.82 231.93-12.99L231.93-12.99Z" opacity="1" transform="matrix(1,0,0,1,0,0)" fill="#ffffff" class="slogan-text-1" data-fill-palette-color="quaternary" id="text-1"></path></svg></g></svg></g></svg></g></svg></g><g></g></svg></g></svg></g><defs></defs></svg><rect width="341.41138079999996" height="216.4188602445202" fill="none" stroke="none" visibility="hidden"></rect></g></svg></g></svg>