<svg width="1501" height="950" viewBox="0 0 1501 950" fill="none" xmlns="http://www.w3.org/2000/svg">
<g clip-path="url(#clip0_4895_7)">
<g clip-path="url(#clip1_4895_7)">
<g clip-path="url(#clip2_4895_7)">
<g clip-path="url(#clip3_4895_7)">
<g clip-path="url(#clip4_4895_7)">
<path d="M0.510986 950.592V-0.75H1501.3V950.592H0.510986Z" fill="#1A4FAC"/>
<path d="M20.3318 930.771V19.0708H1481.48V930.771H20.3318Z" fill="white"/>
<path d="M59.9734 891.129V58.7124H1441.83V891.129H59.9734Z" fill="#1A4FAC"/>
<g clip-path="url(#clip5_4895_7)">
<g clip-path="url(#clip6_4895_7)">
<g clip-path="url(#clip7_4895_7)">
<path d="M253.235 621.051H232.66V572.639C218.54 571.832 205.549 570.098 193.688 567.435C181.747 564.853 171.338 561.948 162.463 558.721C156.412 556.704 150.562 554.969 144.914 553.517C139.266 552.145 134.021 551.459 129.18 551.459V483.078H135.232C135.232 498.408 139.185 510.511 147.092 519.387C154.919 528.262 164.077 535.12 174.566 539.962C185.055 544.803 195.544 547.909 206.033 549.281C216.523 550.733 224.188 551.459 229.029 551.459H232.66V377.178C219.347 372.337 205.953 367.011 192.478 361.202C178.923 355.312 166.699 348.252 155.806 340.022C144.914 331.711 136.159 321.585 129.543 309.644C122.846 297.783 119.498 283.381 119.498 266.437C119.498 249.896 122.645 235.372 128.938 222.866C135.151 210.36 143.583 199.871 154.233 191.399C164.964 182.927 177.107 176.351 190.663 171.671C204.137 167.072 218.136 164.369 232.66 163.562V118.176H253.235V163.562C268.968 164.772 283.895 166.991 298.015 170.219C304.874 171.832 311.53 173.164 317.985 174.213C324.44 175.181 330.693 175.665 336.744 175.665V237.995H330.693C329.886 219.034 322.624 205.599 308.908 197.692C295.191 189.866 276.633 185.549 253.235 184.742V342.685C266.951 347.929 280.789 353.577 294.747 359.629C308.625 365.68 321.132 373.224 332.266 382.261C343.32 391.379 352.276 402.19 359.135 414.697C365.993 427.203 369.422 442.533 369.422 460.688C369.422 478.842 366.114 494.455 359.498 507.526C352.801 520.678 344.006 531.772 333.114 540.809C322.221 549.926 309.836 556.906 295.958 561.747C281.999 566.588 267.758 569.815 253.235 571.429V621.051ZM328.272 465.529C328.272 455.04 326.175 445.64 321.979 437.329C317.703 429.099 312.055 421.757 305.035 415.302C297.935 408.847 289.866 403.078 280.829 397.995C271.712 392.992 262.513 388.474 253.235 384.44V549.644C265.741 547.223 276.755 543.189 286.275 537.541C295.716 531.893 303.583 525.236 309.876 517.571C316.089 509.906 320.728 501.515 323.794 492.397C326.78 483.36 328.272 474.404 328.272 465.529ZM160.648 260.99C160.648 270.673 162.584 279.225 166.457 286.648C170.249 294.152 175.494 300.809 182.191 306.618C188.807 312.508 196.472 317.672 205.186 322.11C213.82 326.547 222.977 330.783 232.66 334.818V184.742C218.943 185.952 207.566 189.462 198.53 195.272C189.412 201.162 182.029 207.818 176.381 215.241C170.733 222.745 166.699 230.612 164.278 238.842C161.858 247.153 160.648 254.535 160.648 260.99ZM652.63 567.798V561.747H655.655C665.338 561.747 670.179 557.309 670.179 548.434C670.179 545.206 669.574 541.777 668.363 538.146L613.9 391.096H508L455.353 535.725C454.142 538.953 453.537 541.979 453.537 544.803C453.537 550.047 454.949 554.162 457.773 557.148C460.597 560.214 463.623 561.747 466.85 561.747H469.876V567.798H402.705V561.747H405.731C410.975 561.747 416.099 558.6 421.101 552.306C426.185 546.094 430.34 538.751 433.567 530.279L572.145 161.142L707.698 526.648C710.522 534.717 714.435 542.584 719.437 550.249C724.521 557.914 731.097 561.747 739.165 561.747H742.191V567.798H652.63ZM560.648 244.046L514.052 370.521H607.244L560.648 244.046ZM875.322 561.747H878.348V567.798H792.418V561.747H795.443C798.671 561.747 801.495 560.536 803.915 558.116C806.336 555.695 808.434 552.871 810.209 549.644C812.065 546.416 813.396 542.866 814.203 538.993C815.01 535.201 815.413 531.691 815.413 528.464V190.794H745.217C738.762 190.794 733.114 192.206 728.272 195.03C723.431 197.854 719.397 201.363 716.17 205.559C712.942 209.835 710.522 214.475 708.908 219.477C707.294 224.561 706.487 229.523 706.487 234.364H700.436V168.403H972.145V234.364H966.094C966.094 229.523 965.287 224.561 963.673 219.477C961.979 214.475 959.558 209.835 956.412 205.559C953.184 201.363 949.15 197.854 944.309 195.03C939.387 192.206 933.739 190.794 927.365 190.794H855.958V528.464C855.958 531.691 856.361 535.201 857.168 538.993C857.975 542.866 859.266 546.416 861.041 549.644C862.897 552.871 864.914 555.695 867.092 558.116C869.352 560.536 872.095 561.747 875.322 561.747ZM1178.98 162.352C1210.45 162.352 1238.69 167.879 1263.7 178.933C1288.72 190.067 1310.02 204.994 1327.61 223.713C1345.12 242.513 1358.63 264.298 1368.15 289.069C1377.59 313.92 1382.31 339.861 1382.31 366.89C1382.31 397.148 1376.78 424.984 1365.73 450.4C1354.6 475.816 1339.35 497.601 1319.98 515.756C1300.62 533.91 1278.15 548.111 1252.57 558.358C1226.91 568.686 1199.56 573.85 1170.51 573.85C1139.45 573.85 1111.53 568.202 1086.76 556.906C1061.91 545.609 1040.93 530.683 1023.82 512.125C1006.64 493.567 993.406 472.185 984.127 447.98C974.848 423.774 970.209 398.56 970.209 372.337C970.209 346.517 974.848 320.98 984.127 295.725C993.406 270.551 1007.04 248.08 1025.04 228.312C1042.95 208.544 1064.81 192.609 1090.63 180.506C1116.45 168.403 1145.9 162.352 1178.98 162.352ZM1178.38 552.67C1205.41 551.459 1229.13 545.287 1249.54 534.152C1269.88 523.098 1286.9 508.978 1300.62 491.792C1314.33 474.687 1324.54 455.847 1331.24 435.272C1337.85 414.697 1341.16 394.324 1341.16 374.152C1341.16 351.964 1337.13 329.573 1329.06 306.981C1320.99 284.389 1309.49 263.895 1294.57 245.499C1279.64 227.183 1261.81 212.256 1241.07 200.718C1220.25 189.261 1196.94 183.532 1171.12 183.532C1146.1 183.532 1123.71 189.059 1103.95 200.113C1084.18 211.247 1067.35 225.488 1053.48 242.836C1039.52 260.183 1028.91 279.548 1021.65 300.93C1014.38 322.311 1010.75 343.29 1010.75 363.865C1010.75 386.053 1014.99 408.323 1023.46 430.673C1031.93 453.103 1043.63 473.396 1058.56 491.55C1073.49 509.704 1091.16 524.429 1111.57 535.725C1131.9 547.021 1154.17 552.67 1178.38 552.67Z" fill="white"/>
</g>
</g>
<g clip-path="url(#clip8_4895_7)">
<g clip-path="url(#clip9_4895_7)">
<path d="M126.301 830.413C123.909 830.413 122.176 829.858 121.101 828.749C119.992 827.674 119.437 825.993 119.437 823.705V679.208C119.437 676.851 119.992 675.135 121.101 674.06C122.176 673.02 123.909 672.5 126.301 672.5H171.849C193.029 672.5 209.963 678.757 222.65 691.271C235.337 703.819 241.68 723.838 241.68 751.327C241.68 778.989 235.337 799.094 222.65 811.642C209.963 824.156 193.029 830.413 171.849 830.413H126.301ZM139.352 813.254H170.342C185.559 813.254 197.83 808.297 207.155 798.383C216.445 788.435 221.09 772.749 221.09 751.327C221.09 736.941 218.906 725.155 214.538 715.969C210.136 706.783 204.122 700.093 196.496 695.899C188.869 691.704 180.151 689.607 170.342 689.607H139.352V813.254ZM304.128 831.661C292.619 831.661 283.312 828.836 276.206 823.185C269.1 817.5 265.546 809.077 265.546 797.915C265.546 786.164 269.134 777.307 276.31 771.345C283.52 765.348 292.307 761.483 302.672 759.75C313.036 758.017 325.619 757.029 340.421 756.786V746.127C340.421 740.442 338.497 735.884 334.649 732.452C330.802 729.055 324.475 727.356 315.671 727.356C308.981 727.356 303.122 728.136 298.096 729.696C293.07 731.256 288.355 733.128 283.953 735.312C282.081 736.248 280.937 736.716 280.521 736.716C279.516 736.716 278.39 735.988 277.142 734.532C275.928 733.041 274.871 731.36 273.97 729.488C273.069 727.616 272.618 726.264 272.618 725.432C272.618 723.491 274.628 721.377 278.65 719.089C282.671 716.801 287.94 714.895 294.456 713.369C300.973 711.844 307.785 711.082 314.891 711.082C329.034 711.082 340.005 714.167 347.804 720.337C355.569 726.542 359.452 735.225 359.452 746.387V797.031C359.452 806.841 359.902 813.93 360.803 818.298C361.705 822.665 362.155 825.057 362.155 825.473C362.155 827.31 360.734 828.645 357.892 829.477C355.049 830.274 352.397 830.673 349.936 830.673C347.926 830.673 346.435 829.529 345.465 827.241C344.494 824.953 343.541 821.66 342.605 817.362L342.085 814.814C337.44 819.979 331.963 824.087 325.654 827.137C319.345 830.153 312.17 831.661 304.128 831.661ZM305.116 815.282C312.568 815.282 318.929 813.93 324.198 811.226C329.432 808.522 334.84 804.675 340.421 799.683V773.009C329.259 773.113 320.073 773.581 312.863 774.413C305.688 775.279 299.396 777.429 293.988 780.86C288.546 784.292 285.825 789.596 285.825 796.771C285.825 802.768 287.454 807.361 290.713 810.55C293.971 813.705 298.772 815.282 305.116 815.282ZM430.79 831.661C423.268 831.661 416.543 829.39 410.616 824.849C404.688 820.274 401.724 812.179 401.724 800.567V728.604H390.441C388.812 728.604 387.651 728.067 386.958 726.992C386.23 725.952 385.866 724.254 385.866 721.897V719.089C385.866 716.732 386.23 715.016 386.958 713.941C387.651 712.867 388.812 712.329 390.441 712.329H401.724L404.376 688.723C404.55 685.43 406.976 683.784 411.656 683.784H413.788C416.145 683.784 417.878 684.182 418.987 684.979C420.096 685.811 420.651 687.059 420.651 688.723V712.329H439.578C441.172 712.329 442.334 712.867 443.061 713.941C443.789 715.016 444.153 716.732 444.153 719.089V721.897C444.153 724.254 443.789 725.952 443.061 726.992C442.334 728.067 441.172 728.604 439.578 728.604H420.651V798.799C420.651 804.969 421.726 809.285 423.875 811.746C426.024 814.207 428.97 815.438 432.714 815.438C435.591 815.438 437.81 815.265 439.37 814.918C440.93 814.571 441.97 814.398 442.489 814.398C443.841 814.398 444.951 815.767 445.817 818.506C446.719 821.209 447.169 823.359 447.169 824.953C447.169 829.425 441.71 831.661 430.79 831.661ZM504.417 831.661C492.908 831.661 483.601 828.836 476.495 823.185C469.389 817.5 465.836 809.077 465.836 797.915C465.836 786.164 469.424 777.307 476.599 771.345C483.809 765.348 492.596 761.483 502.961 759.75C513.326 758.017 525.909 757.029 540.71 756.786V746.127C540.71 740.442 538.786 735.884 534.939 732.452C531.091 729.055 524.765 727.356 515.96 727.356C509.27 727.356 503.412 728.136 498.385 729.696C493.359 731.256 488.645 733.128 484.242 735.312C482.371 736.248 481.227 736.716 480.811 736.716C479.805 736.716 478.679 735.988 477.431 734.532C476.218 733.041 475.16 731.36 474.259 729.488C473.358 727.616 472.907 726.264 472.907 725.432C472.907 723.491 474.918 721.377 478.939 719.089C482.96 716.801 488.229 714.895 494.746 713.369C501.262 711.844 508.074 711.082 515.18 711.082C529.323 711.082 540.294 714.167 548.094 720.337C555.858 726.542 559.741 735.225 559.741 746.387V797.031C559.741 806.841 560.192 813.93 561.093 818.298C561.994 822.665 562.445 825.057 562.445 825.473C562.445 827.31 561.023 828.645 558.181 829.477C555.339 830.274 552.687 830.673 550.226 830.673C548.215 830.673 546.725 829.529 545.754 827.241C544.783 824.953 543.83 821.66 542.894 817.362L542.374 814.814C537.729 819.979 532.252 824.087 525.943 827.137C519.634 830.153 512.459 831.661 504.417 831.661ZM505.405 815.282C512.858 815.282 519.219 813.93 524.487 811.226C529.722 808.522 535.129 804.675 540.71 799.683V773.009C529.548 773.113 520.362 773.581 513.152 774.413C505.977 775.279 499.685 777.429 494.278 780.86C488.835 784.292 486.114 789.596 486.114 796.771C486.114 802.768 487.744 807.361 491.002 810.55C494.26 813.705 499.061 815.282 505.405 815.282ZM687.08 831.661C678.76 831.661 671.03 830.759 663.889 828.957C656.748 827.12 651.029 824.919 646.73 822.353C642.467 819.788 640.335 817.431 640.335 815.282C640.335 814.103 640.82 812.543 641.791 810.602C642.761 808.661 643.888 806.928 645.171 805.403C646.453 803.877 647.476 803.115 648.238 803.115C648.897 803.115 650.37 803.791 652.658 805.143C657.892 807.846 663.092 810.1 668.257 811.902C673.422 813.67 679.696 814.554 687.08 814.554C692.834 814.554 697.947 813.445 702.418 811.226C706.89 809.042 710.374 805.94 712.87 801.919C715.365 797.898 716.613 793.27 716.613 788.036C716.613 782.42 715.123 777.775 712.142 774.101C709.126 770.427 705.486 767.515 701.222 765.366C696.959 763.216 690.754 760.53 682.608 757.306C673.803 753.909 666.853 750.755 661.757 747.843C656.627 744.931 652.259 740.685 648.654 735.104C645.049 729.488 643.247 722.07 643.247 712.849C643.247 704.807 645.327 697.597 649.486 691.219C653.646 684.841 659.522 679.867 667.113 676.296C674.739 672.76 683.509 670.993 693.423 670.993C697.895 670.993 703.008 671.599 708.762 672.812C714.516 674.026 719.456 675.689 723.581 677.804C727.671 679.919 729.716 682.258 729.716 684.823C729.716 685.898 729.266 687.389 728.364 689.295C727.498 691.202 726.475 692.918 725.297 694.443C724.083 695.968 723.148 696.731 722.489 696.731C721.726 696.731 720.201 696.107 717.913 694.859C714.1 692.814 710.339 691.184 706.63 689.971C702.886 688.723 698.345 688.099 693.007 688.099C684.306 688.099 677.27 690.352 671.897 694.859C666.524 699.33 663.837 705.587 663.837 713.629C663.837 718.448 665.016 722.417 667.373 725.536C669.765 728.691 672.781 731.187 676.42 733.024C680.06 734.896 685.138 737.062 691.655 739.523C692.071 739.593 693.042 739.922 694.567 740.511C703.51 744.012 710.842 747.392 716.561 750.651C722.281 753.909 727.151 758.571 731.172 764.638C735.193 770.738 737.204 778.538 737.204 788.036C737.204 796.91 735.159 804.64 731.068 811.226C726.943 817.847 721.102 822.908 713.546 826.409C705.954 829.91 697.132 831.661 687.08 831.661ZM812.078 831.661C793.394 831.661 779.459 826.86 770.273 817.258C761.087 807.656 756.494 792.196 756.494 770.877C756.494 749.281 761.607 733.925 771.833 724.809C782.094 715.657 794.833 711.082 810.05 711.082C815.735 711.082 821.195 711.567 826.429 712.537C831.664 713.508 835.893 714.808 839.116 716.437C842.34 718.032 843.952 719.713 843.952 721.481C843.952 722.659 843.553 724.237 842.756 726.212C841.959 728.154 840.988 729.852 839.844 731.308C838.7 732.799 837.66 733.544 836.724 733.544C836.447 733.544 836.066 733.44 835.581 733.232C835.061 733.024 834.593 732.833 834.177 732.66C826.551 729.124 818.335 727.356 809.53 727.356C799.131 727.356 791.089 730.753 785.404 737.548C779.754 744.376 776.929 755.313 776.929 770.357C776.929 781.034 778.073 789.648 780.361 796.199C782.648 802.751 786.34 807.604 791.436 810.758C796.566 813.878 803.412 815.438 811.974 815.438C821.368 815.438 829.826 813.497 837.348 809.614C838.111 809.441 838.683 809.25 839.064 809.042C839.446 808.834 839.723 808.73 839.896 808.73C840.832 808.73 841.889 809.441 843.068 810.862C844.247 812.318 845.287 813.965 846.188 815.802C847.054 817.674 847.488 819.164 847.488 820.274C847.488 822.041 845.893 823.809 842.704 825.577C839.48 827.345 835.13 828.801 829.653 829.945C824.211 831.089 818.353 831.661 812.078 831.661ZM882.897 683.94C876.9 683.94 873.902 682.276 873.902 678.948V665.637C873.902 662.344 876.9 660.697 882.897 660.697H885.601C891.667 660.697 894.7 662.344 894.7 665.637V678.948C894.7 682.276 891.667 683.94 885.601 683.94H882.897ZM883.781 830.777C877.784 830.777 874.786 829.13 874.786 825.837V716.905C874.786 713.612 877.784 711.965 883.781 711.965H884.665C890.766 711.965 893.816 713.612 893.816 716.905V825.837C893.816 829.13 890.766 830.777 884.665 830.777H883.781ZM981.794 831.661C963.075 831.661 949.175 826.773 940.093 816.998C930.976 807.222 926.418 792.265 926.418 772.125C926.418 752.159 930.872 736.993 939.781 726.628C948.655 716.264 961.723 711.082 978.986 711.082C994.377 711.082 1005.99 716.073 1013.82 726.056C1021.66 736.04 1025.57 750.685 1025.57 769.993C1025.57 770.825 1025.12 771.986 1024.22 773.477C1023.36 774.968 1022.3 776.285 1021.05 777.429C1019.84 778.573 1018.82 779.145 1017.98 779.145H946.748C947.684 791.728 950.925 800.931 956.472 806.755C962.018 812.543 970.372 815.438 981.534 815.438C987.808 815.438 993.198 814.675 997.705 813.15C1002.25 811.625 1006.63 809.77 1010.86 807.586C1011.28 807.413 1011.92 807.101 1012.78 806.651C1013.62 806.235 1014.2 806.027 1014.55 806.027C1015.49 806.027 1016.56 806.772 1017.78 808.262C1018.99 809.753 1020.05 811.399 1020.95 813.202C1021.85 815.039 1022.3 816.374 1022.3 817.206C1022.3 819.078 1020.43 821.157 1016.68 823.445C1012.97 825.733 1008 827.674 1001.76 829.269C995.555 830.863 988.9 831.661 981.794 831.661ZM946.748 762.87H1005.4C1005.4 739.194 996.387 727.356 978.362 727.356C958.985 727.356 948.447 739.194 946.748 762.87ZM1064.31 830.777C1061.09 830.777 1058.75 830.378 1057.29 829.581C1055.87 828.784 1055.16 827.536 1055.16 825.837V746.647C1055.16 736.802 1054.69 729.714 1053.76 725.38C1052.82 721.013 1052.35 718.621 1052.35 718.205C1052.35 716.333 1053.77 714.999 1056.62 714.201C1059.46 713.404 1062.15 713.005 1064.68 713.005C1066.79 713.005 1068.35 714.149 1069.36 716.437C1070.36 718.725 1071.11 721.047 1071.59 723.405C1072.04 725.762 1072.35 727.287 1072.53 727.98C1077.28 722.642 1082.75 718.5 1088.96 715.553C1095.2 712.572 1101.49 711.082 1107.83 711.082C1119.34 711.082 1128.34 714.323 1134.82 720.805C1141.27 727.287 1144.49 736.196 1144.49 747.531V825.837C1144.49 827.536 1143.78 828.784 1142.36 829.581C1140.9 830.378 1138.61 830.777 1135.49 830.777H1134.51C1131.46 830.777 1129.2 830.378 1127.75 829.581C1126.33 828.784 1125.62 827.536 1125.62 825.837V749.403C1125.62 742.47 1123.6 737.08 1119.58 733.232C1115.56 729.384 1109.91 727.46 1102.63 727.46C1097.54 727.46 1092.44 728.882 1087.35 731.724C1082.22 734.566 1077.78 738.432 1074.03 743.319V825.837C1074.03 827.536 1073.32 828.784 1071.9 829.581C1070.45 830.378 1068.21 830.777 1065.2 830.777H1064.31ZM1228.67 831.661C1209.95 831.661 1196 826.86 1186.81 817.258C1177.66 807.656 1173.09 792.196 1173.09 770.877C1173.09 749.281 1178.2 733.925 1188.43 724.809C1198.65 715.657 1211.39 711.082 1226.64 711.082C1232.29 711.082 1237.75 711.567 1243.02 712.537C1248.26 713.508 1252.49 714.808 1255.71 716.437C1258.93 718.032 1260.55 719.713 1260.55 721.481C1260.55 722.659 1260.13 724.237 1259.3 726.212C1258.5 728.154 1257.53 729.852 1256.39 731.308C1255.24 732.799 1254.22 733.544 1253.32 733.544C1253.04 733.544 1252.66 733.44 1252.17 733.232C1251.65 733.024 1251.19 732.833 1250.77 732.66C1243.14 729.124 1234.93 727.356 1226.12 727.356C1215.72 727.356 1207.68 730.753 1202 737.548C1196.35 744.376 1193.52 755.313 1193.52 770.357C1193.52 781.034 1194.67 789.648 1196.95 796.199C1199.21 802.751 1202.9 807.604 1208.03 810.758C1213.16 813.878 1219.99 815.438 1228.52 815.438C1237.91 815.438 1246.39 813.497 1253.94 809.614C1254.7 809.441 1255.28 809.25 1255.66 809.042C1256.04 808.834 1256.32 808.73 1256.49 808.73C1257.39 808.73 1258.45 809.441 1259.66 810.862C1260.84 812.318 1261.86 813.965 1262.73 815.802C1263.63 817.674 1264.08 819.164 1264.08 820.274C1264.08 822.041 1262.47 823.809 1259.25 825.577C1256.02 827.345 1251.69 828.801 1246.25 829.945C1240.8 831.089 1234.95 831.661 1228.67 831.661ZM1338.59 831.661C1319.87 831.661 1305.97 826.773 1296.89 816.998C1287.77 807.222 1283.22 792.265 1283.22 772.125C1283.22 752.159 1287.67 736.993 1296.58 726.628C1305.45 716.264 1318.52 711.082 1335.78 711.082C1351.21 711.082 1362.82 716.073 1370.62 726.056C1378.46 736.04 1382.37 750.685 1382.37 769.993C1382.37 770.825 1381.94 771.986 1381.07 773.477C1380.17 774.968 1379.1 776.285 1377.85 777.429C1376.64 778.573 1375.61 779.145 1374.78 779.145H1303.55C1304.48 791.728 1307.72 800.931 1313.27 806.755C1318.82 812.543 1327.17 815.438 1338.33 815.438C1344.61 815.438 1350 814.675 1354.5 813.15C1359.04 811.625 1363.43 809.77 1367.66 807.586C1368.07 807.413 1368.71 807.101 1369.58 806.651C1370.41 806.235 1371 806.027 1371.35 806.027C1372.29 806.027 1373.36 806.772 1374.57 808.262C1375.79 809.753 1376.84 811.399 1377.74 813.202C1378.65 815.039 1379.1 816.374 1379.1 817.206C1379.1 819.078 1377.22 821.157 1373.48 823.445C1369.77 825.733 1364.8 827.674 1358.56 829.269C1352.35 830.863 1345.7 831.661 1338.59 831.661ZM1303.55 762.87H1362.2C1362.2 739.194 1353.19 727.356 1335.16 727.356C1315.78 727.356 1305.24 739.194 1303.55 762.87Z" fill="white"/>
</g>
</g>
</g>
</g>
</g>
</g>
</g>
</g>
<defs>
<clipPath id="clip0_4895_7">
<rect width="1500" height="949.5" fill="white" transform="translate(0.904785 0.170898)"/>
</clipPath>
<clipPath id="clip1_4895_7">
<rect width="1500.79" height="951.341" fill="white" transform="translate(0.510986 -0.75)"/>
</clipPath>
<clipPath id="clip2_4895_7">
<rect width="1500.79" height="951.341" fill="white" transform="translate(0.510986 -0.75)"/>
</clipPath>
<clipPath id="clip3_4895_7">
<rect width="1500.79" height="951.341" fill="white" transform="translate(0.510986 -0.75)"/>
</clipPath>
<clipPath id="clip4_4895_7">
<rect width="1500.79" height="951.341" fill="white" transform="translate(0.510986 -0.75)"/>
</clipPath>
<clipPath id="clip5_4895_7">
<rect width="1262.94" height="713.489" fill="white" transform="translate(119.437 118.176)"/>
</clipPath>
<clipPath id="clip6_4895_7">
<rect width="1262.94" height="502.875" fill="white" transform="translate(119.437 118.176)"/>
</clipPath>
<clipPath id="clip7_4895_7">
<rect width="1262.94" height="502.875" fill="white" transform="translate(119.437 118.176)"/>
</clipPath>
<clipPath id="clip8_4895_7">
<rect width="1262.94" height="170.972" fill="white" transform="translate(119.437 660.693)"/>
</clipPath>
<clipPath id="clip9_4895_7">
<rect width="1262.94" height="170.972" fill="white" transform="translate(119.437 660.693)"/>
</clipPath>
</defs>
</svg>
